<?xml version="1.0" encoding="utf-8"?>
<!-- Generator: Adobe Illustrator 16.0.0, SVG Export Plug-In . SVG Version: 6.00 Build 0)  -->
<!DOCTYPE svg PUBLIC "-//W3C//DTD SVG 1.1//EN" "http://www.w3.org/Graphics/SVG/1.1/DTD/svg11.dtd">
<svg version="1.1" id="Isolation_Mode" xmlns="http://www.w3.org/2000/svg" xmlns:xlink="http://www.w3.org/1999/xlink" x="0px"
	 y="0px" width="64.793px" height="19.44px" viewBox="147.604 170.28 64.793 19.44"
	 enable-background="new 147.604 170.28 64.793 19.44" xml:space="preserve">
<g>
	<path fill="#FEFEFE" d="M167.422,178.803h2.316l-0.707-1.884c-0.195-0.589-0.393-1.06-0.471-1.413
		c-0.078,0.432-0.235,0.864-0.393,1.295L167.422,178.803z M165.5,181.55l2.59-6.75h0.98l2.747,6.75h-1.021l-0.784-2.041h-2.864
		l-0.707,2.041H165.5z"/>
	<rect x="172.406" y="174.8" fill="#FEFEFE" width="0.824" height="6.75"/>
	<path fill="#FEFEFE" d="M174.525,181.55v-4.905h0.824v4.905H174.525z M174.525,175.742V174.8h0.824v0.942H174.525z"/>
	<path fill="#FEFEFE" d="M177.154,179.039c0,0.628,0.118,1.099,0.393,1.413c0.275,0.314,0.589,0.432,0.941,0.432
		c0.393,0,0.707-0.156,0.981-0.432c0.274-0.275,0.393-0.746,0.393-1.374c0-0.588-0.118-1.06-0.393-1.374s-0.589-0.471-0.981-0.471
		c-0.353,0-0.666,0.157-0.941,0.432C177.272,177.979,177.154,178.45,177.154,179.039 M176.487,181.982l0.785,0.117
		c0.039,0.235,0.118,0.432,0.274,0.549c0.196,0.157,0.471,0.236,0.863,0.236s0.667-0.079,0.902-0.236
		c0.196-0.156,0.354-0.353,0.432-0.627c0.039-0.158,0.078-0.511,0.078-1.061c-0.353,0.432-0.823,0.628-1.373,0.628
		c-0.666,0-1.217-0.235-1.569-0.745c-0.353-0.471-0.55-1.06-0.55-1.766c0-0.471,0.079-0.902,0.236-1.295
		c0.156-0.393,0.432-0.707,0.745-0.903c0.313-0.196,0.706-0.313,1.138-0.313c0.589,0,1.06,0.235,1.413,0.706v-0.628h0.784v4.238
		c0,0.746-0.078,1.295-0.234,1.609c-0.157,0.313-0.393,0.588-0.746,0.746c-0.354,0.195-0.746,0.273-1.256,0.273
		c-0.588,0-1.059-0.117-1.412-0.393C176.645,182.885,176.487,182.492,176.487,181.982z"/>
	<path fill="#FEFEFE" d="M181.902,181.55v-4.905h0.746v0.707c0.354-0.549,0.863-0.785,1.57-0.785c0.313,0,0.549,0.039,0.824,0.157
		c0.234,0.118,0.432,0.235,0.549,0.432c0.117,0.157,0.196,0.393,0.274,0.628c0.039,0.157,0.039,0.432,0.039,0.824v3.022h-0.823
		v-2.983c0-0.353-0.039-0.588-0.079-0.746c-0.079-0.157-0.196-0.314-0.353-0.393c-0.158-0.118-0.354-0.157-0.59-0.157
		c-0.353,0-0.666,0.118-0.902,0.353c-0.273,0.235-0.393,0.667-0.393,1.295v2.668h-0.863V181.55z"/>
	<path fill="#FEFEFE" d="M188.104,180.766h1.688c0.274,0,0.51,0,0.627-0.039c0.197-0.04,0.393-0.079,0.511-0.197
		c0.157-0.078,0.235-0.196,0.354-0.392c0.078-0.157,0.117-0.353,0.117-0.588s-0.078-0.471-0.196-0.667
		c-0.117-0.196-0.314-0.314-0.549-0.392c-0.236-0.079-0.55-0.118-0.981-0.118h-1.569V180.766L188.104,180.766z M188.104,177.626
		h1.451c0.393,0,0.668-0.04,0.863-0.079c0.236-0.079,0.393-0.196,0.511-0.354c0.118-0.157,0.157-0.353,0.157-0.588
		s-0.039-0.432-0.157-0.589c-0.118-0.157-0.274-0.274-0.471-0.353s-0.55-0.079-1.021-0.079h-1.334V177.626z M187.201,181.55v-6.75
		h2.551c0.51,0,0.941,0.079,1.256,0.196c0.313,0.118,0.549,0.353,0.745,0.628c0.196,0.274,0.274,0.588,0.274,0.902
		c0,0.275-0.078,0.549-0.235,0.824s-0.393,0.471-0.706,0.628c0.393,0.118,0.706,0.314,0.941,0.628
		c0.235,0.274,0.314,0.628,0.314,1.02c0,0.314-0.079,0.628-0.197,0.902c-0.117,0.275-0.313,0.471-0.51,0.629
		c-0.195,0.156-0.432,0.273-0.746,0.353c-0.313,0.078-0.666,0.118-1.098,0.118h-2.59V181.55z"/>
	<path fill="#FEFEFE" d="M193.989,179.117c0,0.627,0.118,1.099,0.394,1.412c0.273,0.314,0.627,0.471,1.02,0.471
		c0.432,0,0.746-0.156,1.021-0.471c0.274-0.313,0.392-0.785,0.392-1.412c0-0.589-0.156-1.06-0.432-1.374
		c-0.273-0.314-0.627-0.471-1.02-0.471c-0.432,0-0.746,0.157-1.021,0.471C194.107,178.018,193.989,178.489,193.989,179.117
		 M193.127,179.117c0-0.903,0.234-1.57,0.745-2.001c0.431-0.354,0.941-0.549,1.53-0.549c0.667,0,1.217,0.235,1.648,0.667
		s0.627,1.06,0.627,1.844c0,0.628-0.078,1.138-0.274,1.491c-0.196,0.354-0.471,0.629-0.823,0.824
		c-0.354,0.196-0.746,0.314-1.178,0.314c-0.667,0-1.256-0.235-1.648-0.667C193.361,180.568,193.127,179.941,193.127,179.117z"/>
	<path fill="#FEFEFE" d="M199.248,179.117c0,0.627,0.118,1.099,0.393,1.412c0.274,0.314,0.628,0.471,1.021,0.471
		c0.431,0,0.745-0.156,1.021-0.471c0.273-0.313,0.392-0.785,0.392-1.412c0-0.589-0.157-1.06-0.432-1.374s-0.628-0.471-1.021-0.471
		c-0.432,0-0.745,0.157-1.02,0.471C199.366,178.018,199.248,178.489,199.248,179.117 M198.385,179.117
		c0-0.903,0.235-1.57,0.746-2.001c0.432-0.354,0.941-0.549,1.53-0.549c0.667,0,1.216,0.235,1.647,0.667s0.629,1.06,0.629,1.844
		c0,0.628-0.079,1.138-0.275,1.491c-0.195,0.354-0.471,0.629-0.824,0.824c-0.354,0.196-0.746,0.314-1.177,0.314
		c-0.667,0-1.256-0.235-1.648-0.667C198.62,180.568,198.385,179.941,198.385,179.117z"/>
	<polygon fill="#FEFEFE" points="203.957,181.55 203.957,174.8 204.781,174.8 204.781,178.646 206.743,176.645 207.842,176.645 
		205.959,178.489 208.039,181.55 207.018,181.55 205.37,179.078 204.781,179.627 204.781,181.55 	"/>
	<path fill="#FEFEFE" d="M208.353,180.098l0.824-0.118c0.039,0.313,0.157,0.588,0.392,0.746c0.197,0.156,0.511,0.273,0.902,0.273
		c0.394,0,0.668-0.078,0.864-0.234c0.196-0.158,0.274-0.354,0.274-0.55s-0.078-0.354-0.235-0.432
		c-0.118-0.079-0.393-0.157-0.863-0.275c-0.589-0.157-1.021-0.274-1.256-0.392s-0.432-0.275-0.55-0.471
		c-0.117-0.196-0.195-0.432-0.195-0.667s0.039-0.432,0.156-0.589c0.118-0.196,0.236-0.353,0.393-0.471
		c0.118-0.079,0.314-0.157,0.51-0.235c0.236-0.079,0.471-0.118,0.707-0.118c0.393,0,0.706,0.039,1.02,0.157
		c0.275,0.118,0.511,0.275,0.629,0.432c0.117,0.196,0.235,0.432,0.274,0.746l-0.824,0.118c-0.039-0.235-0.157-0.471-0.313-0.588
		c-0.157-0.157-0.432-0.196-0.746-0.196c-0.393,0-0.667,0.079-0.824,0.196c-0.156,0.118-0.235,0.274-0.235,0.432
		c0,0.118,0.04,0.196,0.118,0.274c0.078,0.079,0.156,0.157,0.313,0.236c0.079,0.039,0.313,0.118,0.745,0.196
		c0.59,0.157,0.981,0.275,1.217,0.393c0.236,0.118,0.432,0.235,0.55,0.432s0.196,0.432,0.196,0.707c0,0.274-0.078,0.549-0.235,0.785
		s-0.393,0.432-0.706,0.549c-0.314,0.118-0.668,0.197-1.021,0.197c-0.627,0-1.137-0.118-1.451-0.393
		C208.666,181,208.431,180.607,208.353,180.098"/>
	<path fill="#FEFEFE" d="M166.206,186.181h0.823l-0.273-0.667c-0.079-0.197-0.118-0.393-0.158-0.511
		c-0.039,0.157-0.078,0.313-0.117,0.472L166.206,186.181z M165.5,187.201l0.941-2.473h0.354l1.02,2.473h-0.353l-0.313-0.746h-1.021
		l-0.274,0.746H165.5z"/>
	<path fill="#FEFEFE" d="M169.188,186.533l0.313,0.039c-0.039,0.197-0.117,0.354-0.234,0.472c-0.118,0.118-0.314,0.157-0.511,0.157
		c-0.235,0-0.432-0.078-0.589-0.235c-0.156-0.157-0.235-0.394-0.235-0.667c0-0.197,0.039-0.354,0.079-0.511
		c0.078-0.157,0.156-0.235,0.273-0.313c0.118-0.078,0.275-0.118,0.432-0.118c0.197,0,0.354,0.04,0.472,0.157
		c0.118,0.078,0.196,0.235,0.235,0.432l-0.274,0.039c-0.04-0.117-0.079-0.196-0.157-0.274c-0.078-0.079-0.156-0.079-0.275-0.079
		c-0.156,0-0.273,0.039-0.353,0.157s-0.157,0.274-0.157,0.511c0,0.234,0.039,0.432,0.118,0.51c0.078,0.117,0.196,0.157,0.353,0.157
		c0.118,0,0.236-0.04,0.314-0.118C169.109,186.809,169.149,186.691,169.188,186.533"/>
	<path fill="#FEFEFE" d="M170.915,186.533l0.313,0.039c-0.039,0.197-0.117,0.354-0.234,0.472c-0.118,0.118-0.314,0.157-0.511,0.157
		c-0.235,0-0.432-0.078-0.589-0.235c-0.156-0.157-0.235-0.394-0.235-0.667c0-0.197,0.04-0.354,0.079-0.511
		c0.078-0.157,0.156-0.235,0.274-0.313c0.117-0.078,0.274-0.118,0.431-0.118c0.197,0,0.354,0.04,0.472,0.157
		c0.118,0.078,0.196,0.235,0.235,0.432l-0.274,0.039c-0.04-0.117-0.079-0.196-0.157-0.274c-0.078-0.079-0.156-0.079-0.275-0.079
		c-0.156,0-0.273,0.039-0.353,0.157c-0.078,0.118-0.157,0.274-0.157,0.511c0,0.234,0.039,0.432,0.118,0.51
		c0.078,0.117,0.196,0.157,0.353,0.157c0.118,0,0.236-0.04,0.314-0.118C170.836,186.809,170.876,186.691,170.915,186.533"/>
	<path fill="#FEFEFE" d="M171.66,186.299c0,0.234,0.039,0.393,0.157,0.51s0.235,0.157,0.393,0.157s0.274-0.04,0.393-0.157
		s0.157-0.275,0.157-0.51c0-0.236-0.039-0.393-0.157-0.511s-0.235-0.157-0.393-0.157s-0.274,0.039-0.393,0.157
		S171.66,186.063,171.66,186.299 M171.347,186.299c0-0.314,0.079-0.589,0.274-0.746c0.157-0.117,0.354-0.196,0.55-0.196
		c0.235,0,0.432,0.079,0.589,0.235c0.156,0.157,0.235,0.393,0.235,0.667c0,0.235-0.04,0.394-0.118,0.55
		c-0.078,0.117-0.156,0.235-0.313,0.314c-0.118,0.078-0.274,0.117-0.433,0.117c-0.234,0-0.432-0.078-0.588-0.235
		C171.426,186.848,171.347,186.612,171.347,186.299z"/>
	<path fill="#FEFEFE" d="M174.525,187.201v-0.275c-0.156,0.197-0.314,0.314-0.549,0.314c-0.118,0-0.197-0.039-0.275-0.078
		s-0.156-0.079-0.196-0.157c-0.039-0.079-0.078-0.118-0.078-0.235c0-0.078,0-0.157,0-0.275v-1.098h0.313v0.98
		c0,0.156,0,0.275,0,0.314c0,0.078,0.078,0.156,0.118,0.195c0.079,0.039,0.118,0.079,0.235,0.079c0.078,0,0.157-0.04,0.235-0.079
		c0.079-0.039,0.118-0.117,0.157-0.195c0.039-0.079,0.039-0.197,0.039-0.354v-0.941h0.314v1.766h-0.314V187.201z"/>
	<path fill="#FEFEFE" d="M175.271,187.201v-1.766h0.273v0.234c0.119-0.195,0.314-0.273,0.551-0.273c0.117,0,0.195,0,0.313,0.039
		c0.078,0.039,0.157,0.078,0.196,0.156s0.078,0.118,0.078,0.236c0,0.039,0,0.156,0,0.273v1.1h-0.314v-1.1
		c0-0.117,0-0.195-0.039-0.273c-0.039-0.079-0.078-0.118-0.117-0.158c-0.078-0.039-0.117-0.039-0.196-0.039
		c-0.118,0-0.235,0.039-0.313,0.118c-0.079,0.079-0.158,0.235-0.158,0.471v0.981H175.271z"/>
	<path fill="#FEFEFE" d="M177.822,186.926l0.039,0.275c-0.078,0-0.157,0.039-0.236,0.039c-0.117,0-0.195,0-0.234-0.039
		c-0.079-0.039-0.118-0.078-0.118-0.118c-0.04-0.039-0.04-0.157-0.04-0.353v-1.021h-0.234v-0.235h0.234v-0.432l0.314-0.197v0.629
		h0.314v0.235h-0.314v1.06c0,0.078,0,0.156,0,0.156c0,0.04,0.039,0.04,0.039,0.079c0.039,0,0.039,0.039,0.118,0.039
		C177.743,186.926,177.783,186.926,177.822,186.926"/>
	<path fill="#FEFEFE" d="M178.136,187.201v-1.766h0.313v1.766H178.136z M178.136,185.082v-0.354h0.313v0.354H178.136z"/>
	<path fill="#FEFEFE" d="M178.881,187.201v-1.766h0.275v0.234c0.117-0.195,0.313-0.273,0.549-0.273c0.117,0,0.196,0,0.314,0.039
		c0.078,0.039,0.156,0.078,0.195,0.156c0.04,0.078,0.079,0.118,0.079,0.236c0,0.039,0,0.156,0,0.273v1.1h-0.313v-1.1
		c0-0.117,0-0.195-0.039-0.273c-0.04-0.079-0.079-0.118-0.119-0.158c-0.078-0.039-0.117-0.039-0.195-0.039
		c-0.118,0-0.236,0.039-0.314,0.118s-0.156,0.235-0.156,0.471v0.981H178.881z"/>
	<path fill="#FEFEFE" d="M181,186.259c0,0.235,0.039,0.394,0.157,0.511c0.078,0.117,0.196,0.156,0.353,0.156
		c0.158,0,0.275-0.039,0.354-0.156c0.079-0.117,0.157-0.275,0.157-0.511s-0.039-0.392-0.157-0.51
		c-0.078-0.118-0.195-0.157-0.354-0.157c-0.117,0-0.234,0.039-0.353,0.157C181.039,185.906,181,186.063,181,186.259
		 M180.765,187.357l0.274,0.039c0,0.079,0.039,0.158,0.118,0.197c0.078,0.039,0.196,0.078,0.313,0.078
		c0.158,0,0.236-0.039,0.314-0.078s0.117-0.118,0.157-0.236c0-0.078,0.039-0.195,0.039-0.392c-0.118,0.157-0.313,0.235-0.511,0.235
		c-0.235,0-0.432-0.078-0.549-0.275c-0.117-0.156-0.196-0.393-0.196-0.627c0-0.157,0.039-0.314,0.079-0.471
		c0.078-0.158,0.156-0.236,0.273-0.314c0.118-0.078,0.236-0.117,0.393-0.117c0.197,0,0.393,0.078,0.511,0.273v-0.234h0.274v1.53
		c0,0.274-0.039,0.471-0.078,0.589c-0.039,0.117-0.157,0.195-0.275,0.273c-0.117,0.08-0.273,0.119-0.471,0.119
		c-0.196,0-0.393-0.039-0.51-0.158C180.805,187.672,180.726,187.515,180.765,187.357z"/>
	<path fill="#FEFEFE" d="M183.747,187.201v-1.531h-0.274v-0.234h0.274v-0.197c0-0.117,0-0.195,0.04-0.274
		c0.039-0.078,0.078-0.157,0.156-0.196s0.157-0.078,0.314-0.078c0.078,0,0.195,0,0.274,0.039l-0.04,0.274c-0.078,0-0.117,0-0.195,0
		s-0.157,0-0.196,0.04c-0.04,0.039-0.04,0.117-0.04,0.234v0.158h0.354v0.234h-0.354v1.531H183.747z"/>
	<path fill="#FEFEFE" d="M184.807,186.299c0,0.234,0.039,0.393,0.157,0.51s0.235,0.157,0.393,0.157s0.274-0.04,0.392-0.157
		c0.118-0.117,0.157-0.275,0.157-0.51c0-0.236-0.039-0.393-0.157-0.511c-0.117-0.118-0.234-0.157-0.392-0.157
		s-0.274,0.039-0.393,0.157S184.807,186.063,184.807,186.299 M184.492,186.299c0-0.314,0.079-0.589,0.275-0.746
		c0.156-0.117,0.354-0.196,0.549-0.196c0.236,0,0.432,0.079,0.589,0.235c0.157,0.157,0.235,0.393,0.235,0.667
		c0,0.235-0.039,0.394-0.117,0.55c-0.078,0.117-0.157,0.235-0.314,0.314c-0.117,0.078-0.274,0.117-0.432,0.117
		c-0.234,0-0.432-0.078-0.588-0.235C184.571,186.848,184.492,186.612,184.492,186.299z"/>
	<path fill="#FEFEFE" d="M186.533,187.201v-1.766h0.275v0.234c0.078-0.117,0.117-0.195,0.195-0.234
		c0.079-0.039,0.118-0.079,0.197-0.079c0.117,0,0.195,0.04,0.313,0.079l-0.118,0.274c-0.078-0.04-0.156-0.079-0.235-0.079
		c-0.078,0-0.118,0.039-0.196,0.079c-0.039,0.039-0.078,0.078-0.117,0.157c-0.039,0.117-0.039,0.234-0.039,0.353v0.942h-0.275
		V187.201z"/>
	<path fill="#FEFEFE" d="M188.574,186.416l0.314-0.039c0,0.117,0.039,0.235,0.117,0.314c0.039,0.078,0.117,0.156,0.235,0.195
		s0.235,0.079,0.392,0.079c0.119,0,0.236,0,0.314-0.04c0.079-0.039,0.157-0.078,0.197-0.156c0.039-0.078,0.078-0.117,0.078-0.197
		c0-0.078-0.039-0.156-0.078-0.195c-0.04-0.039-0.118-0.118-0.236-0.157c-0.078-0.039-0.195-0.078-0.432-0.118
		c-0.235-0.039-0.393-0.117-0.471-0.156c-0.117-0.078-0.196-0.157-0.275-0.235c-0.039-0.079-0.078-0.196-0.078-0.313
		c0-0.119,0.039-0.236,0.118-0.354c0.078-0.118,0.157-0.197,0.313-0.236c0.118-0.039,0.275-0.078,0.432-0.078
		c0.197,0,0.354,0.039,0.471,0.078c0.158,0.039,0.236,0.157,0.314,0.275c0.078,0.117,0.117,0.234,0.117,0.393l-0.313,0.039
		c0-0.157-0.078-0.275-0.157-0.354c-0.078-0.078-0.234-0.117-0.432-0.117c-0.196,0-0.354,0.039-0.432,0.117
		s-0.117,0.156-0.117,0.275c0,0.078,0.039,0.156,0.078,0.234c0.078,0.04,0.235,0.118,0.471,0.158
		c0.275,0.078,0.432,0.117,0.55,0.156c0.157,0.078,0.235,0.157,0.313,0.235c0.079,0.118,0.118,0.235,0.118,0.353
		c0,0.119-0.039,0.236-0.118,0.354c-0.078,0.118-0.195,0.197-0.313,0.275c-0.157,0.078-0.313,0.078-0.472,0.078
		c-0.234,0-0.392-0.039-0.549-0.078c-0.156-0.078-0.274-0.157-0.354-0.275C188.613,186.73,188.574,186.572,188.574,186.416"/>
	<path fill="#FEFEFE" d="M190.929,187.201v-1.766h0.274v0.234c0.039-0.078,0.118-0.156,0.236-0.195
		c0.078-0.039,0.195-0.078,0.313-0.078s0.235,0.039,0.313,0.078s0.157,0.117,0.196,0.235c0.157-0.196,0.313-0.313,0.55-0.313
		c0.195,0,0.314,0.039,0.393,0.156c0.078,0.078,0.156,0.235,0.156,0.471v1.217h-0.314v-1.178c0-0.117,0-0.195-0.039-0.274
		c0-0.039-0.039-0.078-0.117-0.118c-0.039-0.039-0.117-0.039-0.196-0.039c-0.118,0-0.235,0.039-0.313,0.118
		s-0.118,0.235-0.118,0.393v1.021h-0.313v-1.139c0-0.117-0.039-0.235-0.078-0.313c-0.04-0.079-0.119-0.118-0.236-0.118
		c-0.078,0-0.156,0.039-0.235,0.078c-0.078,0.04-0.117,0.118-0.157,0.197c-0.039,0.078-0.039,0.195-0.039,0.353v0.942h-0.274
		V187.201z"/>
	<path fill="#FEFEFE" d="M194.932,186.299c-0.118,0.039-0.275,0.078-0.51,0.117c-0.119,0-0.197,0.039-0.275,0.078
		c-0.039,0.039-0.078,0.039-0.117,0.078c-0.04,0.04-0.04,0.08-0.04,0.158s0.04,0.156,0.079,0.195
		c0.078,0.04,0.156,0.079,0.274,0.079s0.235-0.039,0.313-0.079c0.079-0.039,0.157-0.117,0.197-0.195
		c0.039-0.078,0.039-0.158,0.039-0.314L194.932,186.299z M194.932,186.966c-0.118,0.078-0.235,0.157-0.314,0.196
		c-0.117,0.039-0.195,0.078-0.354,0.078c-0.195,0-0.353-0.039-0.471-0.157c-0.117-0.078-0.156-0.235-0.156-0.353
		c0-0.078,0.039-0.158,0.078-0.236s0.078-0.117,0.157-0.156c0.078-0.039,0.117-0.079,0.235-0.118c0.078,0,0.156-0.039,0.275-0.039
		c0.234-0.039,0.431-0.079,0.549-0.118c0-0.039,0-0.078,0-0.078c0-0.117-0.039-0.196-0.078-0.274
		c-0.079-0.079-0.197-0.118-0.354-0.118c-0.157,0-0.236,0.039-0.314,0.078c-0.078,0.04-0.117,0.158-0.156,0.275l-0.314-0.039
		c0.039-0.118,0.078-0.236,0.117-0.314c0.079-0.078,0.157-0.117,0.275-0.195c0.117-0.04,0.235-0.08,0.393-0.08
		c0.156,0,0.274,0,0.354,0.04c0.078,0.04,0.156,0.079,0.195,0.118s0.078,0.117,0.078,0.195c0,0.04,0,0.158,0,0.275v0.393
		c0,0.274,0,0.471,0,0.549c0,0.079,0.04,0.157,0.079,0.196h-0.313C194.971,187.123,194.932,187.044,194.932,186.966z"/>
	<path fill="#FEFEFE" d="M195.678,187.201v-1.766h0.274v0.234c0.078-0.117,0.117-0.195,0.196-0.234
		c0.078-0.039,0.117-0.079,0.195-0.079c0.118,0,0.197,0.04,0.314,0.079l-0.117,0.274c-0.079-0.04-0.158-0.079-0.236-0.079
		s-0.117,0.039-0.195,0.079c-0.04,0.039-0.079,0.078-0.118,0.157c-0.039,0.117-0.039,0.234-0.039,0.353v0.942h-0.274V187.201z"/>
	<path fill="#FEFEFE" d="M197.482,186.926l0.039,0.275c-0.078,0-0.157,0.039-0.235,0.039c-0.118,0-0.196,0-0.235-0.039
		c-0.078-0.039-0.118-0.078-0.118-0.118c-0.039-0.039-0.039-0.157-0.039-0.353v-1.021h-0.235v-0.235h0.235v-0.432l0.313-0.197v0.629
		h0.314v0.235h-0.314v1.06c0,0.078,0,0.156,0,0.156c0,0.04,0.039,0.04,0.039,0.079c0.04,0,0.04,0.039,0.118,0.039
		C197.364,186.926,197.443,186.926,197.482,186.926"/>
	<path fill="#FEFEFE" d="M199.092,186.887h0.627c0.118,0,0.196,0,0.236,0c0.078,0,0.117-0.039,0.195-0.078
		c0.039-0.039,0.078-0.078,0.118-0.117c0.039-0.079,0.039-0.119,0.039-0.197s-0.039-0.156-0.079-0.235
		c-0.039-0.078-0.117-0.117-0.195-0.157c-0.078-0.039-0.196-0.039-0.354-0.039h-0.549v0.824H199.092z M199.092,185.788h0.549
		c0.156,0,0.235,0,0.314-0.039c0.078-0.039,0.156-0.079,0.195-0.118s0.078-0.117,0.078-0.195c0-0.079,0-0.158-0.039-0.197
		c-0.039-0.078-0.078-0.117-0.156-0.117c-0.078-0.039-0.196-0.039-0.393-0.039h-0.51v0.706H199.092z M198.777,187.201v-2.473h0.902
		c0.196,0,0.354,0.039,0.471,0.078c0.118,0.039,0.197,0.118,0.275,0.236c0.078,0.117,0.078,0.195,0.078,0.313
		s-0.039,0.196-0.078,0.313c-0.039,0.079-0.157,0.158-0.275,0.236c0.157,0.039,0.275,0.117,0.354,0.235
		c0.078,0.117,0.117,0.235,0.117,0.353c0,0.118-0.039,0.236-0.078,0.314c-0.039,0.117-0.117,0.157-0.195,0.235
		c-0.079,0.039-0.158,0.079-0.275,0.118s-0.235,0.039-0.393,0.039H198.777z"/>
	<path fill="#FEFEFE" d="M202.191,187.201v-0.275c-0.157,0.197-0.314,0.314-0.55,0.314c-0.117,0-0.196-0.039-0.274-0.078
		s-0.156-0.079-0.196-0.157c-0.04-0.079-0.079-0.118-0.079-0.235c0-0.078,0-0.157,0-0.275v-1.098h0.314v0.98
		c0,0.156,0,0.275,0,0.314c0,0.078,0.078,0.156,0.118,0.195c0.078,0.039,0.117,0.079,0.235,0.079c0.078,0,0.156-0.04,0.235-0.079
		c0.078-0.039,0.118-0.117,0.157-0.195c0.039-0.079,0.039-0.197,0.039-0.354v-0.941h0.314v1.766h-0.314V187.201z"/>
	<path fill="#FEFEFE" d="M202.819,186.652l0.313-0.04c0,0.118,0.078,0.196,0.157,0.274c0.079,0.079,0.196,0.079,0.313,0.079
		c0.158,0,0.236-0.04,0.314-0.079s0.117-0.117,0.117-0.195c0-0.079-0.039-0.119-0.078-0.158s-0.156-0.078-0.314-0.117
		c-0.234-0.039-0.392-0.117-0.471-0.157c-0.078-0.039-0.156-0.078-0.195-0.157c-0.039-0.078-0.079-0.156-0.079-0.234
		c0-0.079,0-0.157,0.04-0.236c0.039-0.078,0.078-0.117,0.156-0.156c0.039-0.039,0.117-0.078,0.196-0.078
		c0.079-0.04,0.157-0.04,0.274-0.04c0.157,0,0.275,0.04,0.354,0.079c0.117,0.039,0.196,0.078,0.235,0.156
		c0.04,0.078,0.079,0.157,0.118,0.275l-0.314,0.039c0-0.078-0.039-0.157-0.117-0.236c-0.078-0.039-0.157-0.078-0.275-0.078
		c-0.156,0-0.235,0.039-0.313,0.078c-0.079,0.04-0.079,0.118-0.079,0.158c0,0.039,0,0.078,0.039,0.117
		c0.04,0.039,0.079,0.078,0.118,0.078c0.04,0,0.118,0.039,0.274,0.078c0.197,0.04,0.354,0.118,0.432,0.157
		c0.079,0.04,0.158,0.079,0.197,0.157s0.078,0.156,0.078,0.275c0,0.117-0.039,0.195-0.078,0.274
		c-0.079,0.078-0.157,0.157-0.236,0.196c-0.117,0.039-0.234,0.078-0.393,0.078c-0.234,0-0.393-0.039-0.51-0.157
		C202.938,187.005,202.858,186.848,202.819,186.652"/>
	<path fill="#FEFEFE" d="M204.664,187.201v-1.766h0.313v1.766H204.664z M204.664,185.082v-0.354h0.313v0.354H204.664z"/>
	<path fill="#FEFEFE" d="M205.409,187.201v-1.766h0.274v0.234c0.117-0.195,0.314-0.273,0.55-0.273c0.118,0,0.196,0,0.313,0.039
		c0.078,0.039,0.157,0.078,0.196,0.156c0.04,0.078,0.079,0.118,0.079,0.236c0,0.039,0,0.156,0,0.273v1.1h-0.314v-1.1
		c0-0.117,0-0.195-0.039-0.273c-0.039-0.079-0.078-0.118-0.117-0.158c-0.079-0.039-0.118-0.039-0.197-0.039
		c-0.117,0-0.234,0.039-0.313,0.118s-0.157,0.235-0.157,0.471v0.981H205.409z"/>
	<path fill="#FEFEFE" d="M207.528,186.142h0.981c0-0.157-0.039-0.274-0.118-0.354c-0.079-0.118-0.235-0.157-0.393-0.157
		s-0.235,0.039-0.353,0.157C207.607,185.867,207.567,185.984,207.528,186.142 M208.549,186.612l0.314,0.04
		c-0.04,0.195-0.158,0.313-0.275,0.431c-0.117,0.118-0.314,0.157-0.51,0.157c-0.275,0-0.471-0.078-0.629-0.235
		c-0.156-0.157-0.234-0.393-0.234-0.667c0-0.314,0.078-0.55,0.234-0.707c0.158-0.156,0.354-0.234,0.59-0.234
		c0.234,0,0.432,0.078,0.588,0.234c0.157,0.157,0.236,0.393,0.236,0.668c0,0,0,0.039,0,0.078h-1.335
		c0,0.195,0.079,0.354,0.157,0.432c0.117,0.117,0.235,0.157,0.354,0.157c0.117,0,0.195-0.04,0.273-0.079
		C208.431,186.848,208.51,186.73,208.549,186.612z"/>
	<path fill="#FEFEFE" d="M209.098,186.652l0.314-0.04c0,0.118,0.078,0.196,0.156,0.274c0.079,0.079,0.197,0.079,0.314,0.079
		c0.156,0,0.235-0.04,0.314-0.079c0.078-0.039,0.117-0.117,0.117-0.195c0-0.079-0.039-0.119-0.078-0.158s-0.157-0.078-0.314-0.117
		c-0.235-0.039-0.393-0.117-0.471-0.157c-0.078-0.039-0.156-0.078-0.196-0.157c-0.039-0.078-0.078-0.156-0.078-0.234
		c0-0.079,0-0.157,0.039-0.236c0.039-0.078,0.079-0.117,0.157-0.156c0.039-0.039,0.117-0.078,0.195-0.078
		c0.079-0.04,0.157-0.04,0.275-0.04c0.156,0,0.274,0.04,0.354,0.079c0.117,0.039,0.195,0.078,0.234,0.156s0.079,0.157,0.119,0.275
		l-0.314,0.039c0-0.078-0.039-0.157-0.118-0.236c-0.079-0.039-0.157-0.078-0.274-0.078c-0.157,0-0.235,0.039-0.314,0.078
		c-0.078,0.04-0.078,0.118-0.078,0.158c0,0.039,0,0.078,0.039,0.117s0.078,0.078,0.118,0.078c0.039,0,0.117,0.039,0.274,0.078
		c0.196,0.04,0.354,0.118,0.432,0.157c0.078,0.04,0.156,0.079,0.196,0.157s0.079,0.156,0.079,0.275c0,0.117-0.039,0.195-0.079,0.274
		c-0.079,0.078-0.157,0.157-0.235,0.196c-0.118,0.039-0.236,0.078-0.393,0.078c-0.235,0-0.393-0.039-0.51-0.157
		C209.216,187.005,209.137,186.848,209.098,186.652"/>
	<path fill="#FEFEFE" d="M210.824,186.652l0.314-0.04c0,0.118,0.078,0.196,0.156,0.274c0.079,0.079,0.197,0.079,0.314,0.079
		c0.157,0,0.236-0.04,0.314-0.079s0.117-0.117,0.117-0.195c0-0.079-0.039-0.119-0.078-0.158s-0.157-0.078-0.314-0.117
		c-0.235-0.039-0.393-0.117-0.471-0.157c-0.078-0.039-0.156-0.078-0.196-0.157c-0.039-0.078-0.078-0.156-0.078-0.234
		c0-0.079,0-0.157,0.039-0.236c0.039-0.078,0.079-0.117,0.157-0.156c0.039-0.039,0.117-0.078,0.195-0.078
		c0.079-0.04,0.158-0.04,0.275-0.04c0.156,0,0.275,0.04,0.354,0.079c0.117,0.039,0.195,0.078,0.235,0.156
		c0.039,0.078,0.078,0.157,0.118,0.275l-0.314,0.039c0-0.078-0.039-0.157-0.117-0.236c-0.079-0.039-0.158-0.078-0.275-0.078
		c-0.157,0-0.235,0.039-0.314,0.078c-0.078,0.04-0.078,0.118-0.078,0.158c0,0.039,0,0.078,0.039,0.117s0.078,0.078,0.118,0.078
		c0.039,0,0.118,0.039,0.274,0.078c0.196,0.04,0.354,0.118,0.432,0.157c0.078,0.04,0.157,0.079,0.196,0.157
		c0.04,0.078,0.079,0.156,0.079,0.275c0,0.117-0.039,0.195-0.079,0.274c-0.078,0.078-0.157,0.157-0.235,0.196
		c-0.117,0.039-0.235,0.078-0.393,0.078c-0.235,0-0.393-0.039-0.51-0.157C210.942,187.005,210.864,186.848,210.824,186.652"/>
	<polygon fill="#FEFEFE" points="147.605,170.327 162.635,170.327 162.635,184.964 158.004,189.673 147.605,189.673 	"/>
	<polygon fill="#10528C" points="154.904,173.309 148.664,186.652 150.666,186.691 153.452,180.687 156.474,186.691 
		158.514,186.691 154.473,178.411 154.904,177.469 159.574,186.691 160.986,185.514 	"/>
	<polygon fill="#E72910" points="162.635,184.964 158.004,184.964 158.004,189.673 	"/>
</g>
</svg>
